<?xml version="1.0" encoding="utf-8"?>
<!-- Generator: Adobe Illustrator 16.0.0, SVG Export Plug-In . SVG Version: 6.00 Build 0)  -->
<!DOCTYPE svg PUBLIC "-//W3C//DTD SVG 1.1//EN" "http://www.w3.org/Graphics/SVG/1.1/DTD/svg11.dtd" [
	<!ENTITY ns_extend "http://ns.adobe.com/Extensibility/1.0/">
	<!ENTITY ns_ai "http://ns.adobe.com/AdobeIllustrator/10.0/">
	<!ENTITY ns_graphs "http://ns.adobe.com/Graphs/1.0/">
	<!ENTITY ns_vars "http://ns.adobe.com/Variables/1.0/">
	<!ENTITY ns_imrep "http://ns.adobe.com/ImageReplacement/1.0/">
	<!ENTITY ns_sfw "http://ns.adobe.com/SaveForWeb/1.0/">
	<!ENTITY ns_custom "http://ns.adobe.com/GenericCustomNamespace/1.0/">
	<!ENTITY ns_adobe_xpath "http://ns.adobe.com/XPath/1.0/">
]>
<svg version="1.1" id="Layer_1" xmlns:x="&ns_extend;" xmlns:i="&ns_ai;" xmlns:graph="&ns_graphs;"
	 xmlns="http://www.w3.org/2000/svg" xmlns:xlink="http://www.w3.org/1999/xlink" x="0px" y="0px" width="960.75px" height="600px"
	 viewBox="0 0 960.75 600" enable-background="new 0 0 960.75 600" xml:space="preserve">
<metadata>
	<sfw  xmlns="&ns_sfw;">
		<slices></slices>
		<sliceSourceBounds  width="960.756" height="595.971" y="-267.471" x="-450.875" bottomLeftOrigin="true"></sliceSourceBounds>
	</sfw>
</metadata>
<path fill="#404041" d="M945.76,82.952c-1.592-11.54-10.025-21.043-21.314-23.991C790.043,23.856,639.746,3.667,480.561,3.658
	c-159.22,0-309.564,20.199-444.061,55.313c-11.259,2.948-19.69,12.422-21.31,23.938C-5.073,226.923-5.063,373.248,15.214,517.252
	c1.625,11.511,10.046,20.994,21.295,23.923c134.505,35.144,284.841,55.313,444.04,55.313c159.175,0,309.472-20.172,443.867-55.305
	c11.277-2.918,19.713-12.432,21.313-23.971C965.754,373.229,965.764,226.946,945.76,82.952z"/>
<path fill="#FFFFFF" d="M915.145,235.106c0.611-1.222-238.367-10.216-429.285-10.216c-190.947,0-429.475,10.104-428.849,11.22
	c0.029-0.805,0.049-1.61,0.087-2.424c-0.577-0.824,225.528-19.472,428.733-19.472c203.225,0,429.781,17.993,429.229,18.885
	C915.076,233.763,915.105,234.441,915.145,235.106z"/>
<path fill="#FFFFFF" d="M903.955,120.384c-0.814-3.952-195.604-36.728-421.189-36.728c-225.581,0-413.993,33.882-414.817,37.722
	c0.102-0.805,0.188-1.595,0.291-2.4c0.814-3.181,203.705-45.771,414.526-45.771c210.828,0,420.133,41.926,420.957,45.185
	C903.789,119.055,903.867,119.719,903.955,120.384z"/>
<path fill="#FFFFFF" d="M915.145,365.209c0.611,1.212-238.367,10.19-429.285,10.19c-190.947,0-429.475-10.095-428.849-11.21
	c0.029,0.795,0.049,1.629,0.087,2.405c-0.567,0.834,225.538,19.511,428.743,19.511c203.234,0,429.781-17.998,429.236-18.891
	C915.076,366.537,915.105,365.877,915.145,365.209z"/>
<path fill="#FFFFFF" d="M903.955,479.916c-0.814,3.938-195.604,36.733-421.189,36.733c-225.581,0-413.993-33.893-414.817-37.723
	c0.102,0.795,0.188,1.591,0.291,2.386c0.814,3.172,203.705,45.771,414.526,45.771c210.828,0,420.133-41.911,420.957-45.18
	C903.789,481.255,903.867,480.596,903.955,479.916z"/>
<path fill="#FFFFFF" d="M654.396,597.971c-1.803,0-3.51-0.659-4.781-1.871c-1.424-1.367-2.189-3.316-2.045-5.383
	c13.148-191.965,13.148-389.483,0-581.459c-0.145-2.046,0.621-3.98,2.025-5.353c1.281-1.231,2.979-1.896,4.801-1.896
	c0.225,0,0.445,0.01,0.66,0.029c13.566,1.193,27.143,2.375,40.748,3.559c3.84,0.334,7.02,3.462,7.369,7.214
	c17.145,189.527,17.154,384.387,0.039,573.911c-0.33,3.724-3.492,6.847-7.283,7.205c-13.615,1.366-27.201,2.687-40.777,4.022
	C654.9,597.971,654.648,597.971,654.396,597.971z"/>
<path fill="#FFFFFF" d="M151.174,574.271c-0.616,0-1.241-0.078-1.867-0.232c-12.194-2.93-24.408-5.877-36.665-8.805
	c-3.423-0.835-6.144-3.744-6.599-7.061c-24-171.398-23.923-346.681,0.228-518.074c0.485-3.443,3.384-6.415,6.938-7.108
	c12.185-2.376,24.321-4.767,36.433-7.152c0.509-0.097,1.013-0.146,1.522-0.146c1.688,0,3.263,0.563,4.465,1.629
	c1.552,1.377,2.284,3.452,2.007,5.639c-22.221,176.581-22.221,357.459,0,534.034c0.286,2.25-0.494,4.363-2.114,5.74
	C154.332,573.738,152.793,574.271,151.174,574.271z"/>
<path fill="#FFFFFF" d="M815.438,574.271c-1.617,0-3.158-0.533-4.334-1.533c-1.646-1.367-2.424-3.49-2.15-5.721
	c22.244-176.586,22.244-357.474,0-534.045c-0.271-2.187,0.465-4.262,2.025-5.639c1.184-1.063,2.764-1.629,4.449-1.629
	c0.516,0,1.01,0.048,1.516,0.15c12.119,2.381,24.262,4.762,36.439,7.147c3.541,0.693,6.449,3.665,6.943,7.106
	c24.146,171.384,24.225,346.677,0.223,518.064c-0.455,3.315-3.199,6.226-6.613,7.06c-12.227,2.93-24.455,5.877-36.664,8.805
	C816.66,574.193,816.068,574.271,815.438,574.271z"/>
<path fill="#FFFFFF" d="M329.895,597.932c-13.566-1.338-27.143-2.656-40.762-4.014c-3.787-0.35-6.915-3.491-7.22-7.195
	c-15.671-189.532-15.651-384.393,0.039-573.92c0.315-3.753,3.477-6.881,7.288-7.215c13.605-1.184,27.167-2.366,40.724-3.559
	C330.171,2.019,330.399,2,330.608,2c1.848,0,3.554,0.674,4.849,1.896c1.435,1.372,2.192,3.307,2.065,5.353
	c-11.67,191.976-11.67,389.494,0,581.46c0.126,2.064-0.64,4.005-2.099,5.382c-1.271,1.212-2.987,1.86-4.805,1.86
	C330.379,597.971,330.142,597.971,329.895,597.932z"/>
</svg>
